# xmcd
#
# Track frame offsets:
#	150
#	22217
#	39387
#	57155
#	72652
#	89530
#	105140
#	123460
#	143480
#	166365
#	182252
#	204992
#	222287
#
# Disc length: 3273 seconds
#
# Revision: 0
# Processed by: cddbd v1.4PL0 Copyright (c) Steve Scherf et al.
# Submitted via: EasyCDDAExtractor 4.6.9.1
#
DISCID=b10cc70d
DTITLE=Tandy
DYEAR=2002
DGENRE=country-rock
TTITLE0=the first thing broken
TTITLE1=dissappeared
TTITLE2=facing winter alone
TTITLE3=far from home
TTITLE4=hope you had fun
TTITLE5=questioningly
TTITLE6=who knew 
TTITLE7=the metal it's worth
TTITLE8=no earthly reason
TTITLE9=shannon goodson
TTITLE10=ship to shore
TTITLE11=shine
TTITLE12=pull
EXTD=
EXTT0=
EXTT1=
EXTT2=
EXTT3=
EXTT4=
EXTT5=
EXTT6=
EXTT7=
EXTT8=
EXTT9=
EXTT10=
EXTT11=
EXTT12=
PLAYORDER=
